<svg width="1440" height="2039" viewBox="0 0 1440 2039" fill="none" xmlns="http://www.w3.org/2000/svg">
<g opacity="0.6" clip-path="url(#clip0_1096_3927)">
<g opacity="0.3">
<path d="M53.9865 2259.11C-82.1556 2028.92 -23.6116 1428.38 207.866 1199.75C301.79 1106.98 422.672 1025.52 557.57 1054.02C747.803 1094.21 1014.41 1413.75 1205.6 1224.93C1544.47 890.235 662.025 467.19 1055.44 78.6308C1145.52 -10.3481 1345.69 20.4297 1467.02 -3.76614" stroke="black" stroke-miterlimit="10"/>
<path d="M1469.37 2.96663C1350.47 26.4673 1154.35 -3.84622 1066.01 83.1133C679.61 462.186 1538.26 874.814 1203.02 1205.92C1008.95 1397.58 755.551 1097.35 562.407 1067.06C422.566 1045.13 293.436 1114.66 194.744 1212.14C-32.2866 1436.37 -86.2834 2017.34 46.7375 2243.25" stroke="#000103" stroke-miterlimit="10"/>
<path d="M1471.73 9.71717C1355.26 32.5228 1163.18 2.6679 1076.57 87.6193C697.2 457.201 1532.02 859.421 1200.43 1186.93C1003.49 1381.43 763.102 1100.76 567.255 1080.14C422.321 1064.88 285.105 1122.35 181.633 1224.56C-40.944 1444.4 -90.4003 2005.8 39.4928 2227.41" stroke="#010305" stroke-miterlimit="10"/>
<path d="M1474.09 16.4683C1360.03 38.5659 1172.22 9.42285 1087.15 92.1201C715.674 453.27 1525.81 844.018 1197.85 1167.94C998.046 1365.28 770.531 1104.41 572.104 1093.21C421.949 1084.73 276.775 1130.05 168.516 1236.97C-49.6135 1452.4 -94.5335 1994.24 32.2494 2211.57" stroke="#010408" stroke-miterlimit="10"/>
<path d="M1476.44 23.2001C1364.81 44.6026 1181.11 16.0022 1097.72 96.6017C733.561 448.63 1519.59 828.601 1195.26 1148.92C992.583 1349.09 777.865 1108.27 576.952 1106.24C421.479 1104.67 268.433 1137.72 155.406 1249.36C-58.259 1460.39 -98.6429 1982.67 25.0012 2195.71" stroke="#02050B" stroke-miterlimit="10"/>
<path d="M1478.8 29.9511C1369.59 50.6457 1190 22.6006 1108.3 101.102C751.444 443.996 1513.36 813.203 1192.68 1129.92C987.14 1332.93 785.129 1112.38 581.81 1119.31C420.949 1124.78 260.112 1145.41 142.305 1261.77C-66.9128 1468.41 -102.749 1971.12 17.7735 2179.87" stroke="#02070E" stroke-miterlimit="10"/>
<path d="M1481.15 36.7022C1374.37 56.6888 1198.91 29.1807 1118.88 105.603C769.331 439.362 1507.16 797.8 1190.11 1110.93C981.69 1316.77 792.364 1116.72 586.672 1132.38C420.382 1145.03 251.795 1153.11 129.207 1274.19C-75.5565 1476.43 -106.864 1959.58 10.5423 2164.03" stroke="#020810" stroke-miterlimit="10"/>
<path d="M1483.51 43.4344C1379.15 62.7259 1207.8 35.7604 1129.44 110.091C787.206 434.728 1500.92 782.389 1187.51 1091.93C976.228 1300.62 799.544 1121.24 591.497 1145.42C419.749 1165.38 243.43 1160.79 116.074 1286.59C-84.2429 1484.43 -110.996 1948.02 3.28196 2148.17" stroke="#030913" stroke-miterlimit="10"/>
<path d="M1485.86 50.1856C1383.92 68.7691 1216.69 42.3589 1140.02 114.592C805.079 430.1 1494.71 766.985 1184.94 1072.94C970.775 1284.46 806.755 1125.97 596.345 1158.5C419.127 1185.9 235.098 1168.49 102.956 1299C-92.9069 1492.45 -115.12 1936.46 -3.97358 2132.33" stroke="#030A16" stroke-miterlimit="10"/>
<path d="M1488.22 56.937C1388.71 74.8197 1225.58 48.9577 1150.59 119.093C822.95 425.472 1488.48 751.588 1182.35 1053.93C965.324 1268.28 813.962 1130.83 601.195 1171.55C418.521 1206.5 226.769 1176.17 89.847 1311.4C-101.569 1500.45 -119.245 1924.9 -11.2094 2116.49" stroke="#040C18" stroke-miterlimit="10"/>
<path d="M1490.58 63.6677C1393.49 80.8425 1234.48 55.5359 1161.17 123.574C840.831 420.837 1482.26 736.17 1179.77 1034.93C959.863 1252.11 821.199 1135.84 606.045 1184.6C417.924 1227.23 218.429 1183.85 76.7378 1323.8C-110.224 1508.46 -123.36 1913.33 -18.4455 2100.64" stroke="#040D1B" stroke-miterlimit="10"/>
<path d="M1492.93 70.4193C1398.27 86.8989 1243.37 62.135 1171.73 128.081C858.682 416.221 1476.04 720.773 1177.18 1015.94C954.409 1235.96 828.454 1141 610.892 1197.67C417.339 1248.08 210.097 1191.55 63.626 1336.23C-118.889 1516.48 -127.471 1901.8 -25.6908 2084.8" stroke="#040E1E" stroke-miterlimit="10"/>
<path d="M1495.28 77.1718C1403.04 92.9435 1252.26 68.7349 1182.3 132.57C876.539 411.6 1469.8 705.364 1174.59 996.934C948.951 1219.8 835.74 1146.25 615.739 1210.73C416.796 1269.03 201.764 1199.24 50.5068 1348.62C-127.554 1524.48 -131.607 1890.23 -32.9477 2068.94" stroke="#051021" stroke-miterlimit="10"/>
<path d="M1497.65 83.9157C1407.84 98.9923 1261.17 75.3263 1192.88 137.064C894.418 406.983 1463.6 689.953 1172.03 977.935C943.519 1203.63 843.091 1151.62 620.601 1223.78C416.291 1290.04 193.437 1206.92 37.4101 1361.02C-136.193 1532.47 -135.709 1878.66 -40.1712 2053.09" stroke="#051123" stroke-miterlimit="10"/>
<path d="M1500 90.655C1412.6 105.024 1270.05 81.9002 1203.45 141.553C912.265 402.367 1457.37 674.544 1169.43 958.923C938.038 1187.45 850.444 1157.05 625.421 1236.83C415.797 1311.15 185.077 1214.6 24.2711 1373.42C-144.878 1540.48 -139.854 1867.1 -47.4369 2037.24" stroke="#051226" stroke-miterlimit="10"/>
<path d="M1502.36 97.4047C1417.39 111.078 1278.93 88.5031 1214.02 146.058C930.114 397.768 1451.14 659.15 1166.84 939.934C932.587 1171.3 857.845 1162.59 630.271 1249.9C415.355 1332.35 176.748 1222.29 11.1617 1385.84C-153.54 1548.5 -143.973 1855.57 -54.68 2021.4" stroke="#061429" stroke-miterlimit="10"/>
<path d="M1504.72 104.15C1422.17 117.115 1287.83 95.0954 1224.6 150.553C947.967 393.163 1444.93 643.741 1164.27 920.935C927.146 1155.15 865.311 1168.19 635.135 1262.96C414.972 1353.61 168.422 1229.99 -1.93969 1398.24C-162.187 1556.51 -148.08 1844 -61.9191 2005.55" stroke="#06152C" stroke-miterlimit="10"/>
<path d="M1507.07 110.887C1426.95 123.158 1296.71 101.686 1235.17 155.04C965.806 388.552 1438.7 628.33 1161.69 901.929C921.696 1138.97 872.802 1173.82 639.986 1276.01C414.616 1374.93 160.094 1237.67 -15.0479 1410.64C-170.842 1564.52 -152.194 1832.43 -69.1542 1989.7" stroke="#07162E" stroke-miterlimit="10"/>
<path d="M1509.42 117.639C1431.72 129.201 1305.6 108.285 1245.74 159.541C983.636 383.96 1432.49 612.927 1159.1 882.943C916.227 1122.82 880.328 1179.54 644.828 1289.09C414.296 1396.32 151.757 1245.37 -28.1644 1423.06C-179.511 1572.54 -156.321 1820.91 -76.3975 1973.87" stroke="#071731" stroke-miterlimit="10"/>
<path d="M1511.78 124.383C1436.51 135.25 1314.49 114.882 1256.32 164.035C1001.47 379.366 1426.27 597.522 1156.53 863.93C910.788 1106.64 887.894 1185.26 649.683 1302.12C414.025 1417.73 143.422 1253.03 -41.2685 1435.45C-188.161 1580.54 -160.43 1809.32 -83.6351 1957.99" stroke="#071934" stroke-miterlimit="10"/>
<path d="M1514.13 131.12C1441.28 141.28 1323.37 121.473 1266.88 168.528C1019.28 374.771 1420.03 582.117 1153.93 844.929C905.316 1090.47 895.486 1191.04 654.523 1315.18C413.777 1439.21 135.082 1260.72 -54.3839 1447.84C-196.829 1588.52 -164.551 1797.74 -90.8882 1942.14" stroke="#081A36" stroke-miterlimit="10"/>
<path d="M1516.49 137.872C1446.05 147.324 1332.26 128.072 1277.45 173.029C1037.09 370.191 1413.82 566.714 1151.35 825.943C899.868 1074.33 903.127 1196.86 659.358 1328.26C413.562 1460.75 126.738 1268.43 -67.5076 1460.27C-205.499 1596.56 -168.692 1786.21 -98.1388 1926.32" stroke="#081B39" stroke-miterlimit="10"/>
<path d="M1518.85 144.619C1450.84 153.376 1341.16 134.672 1288.04 177.526C1054.91 365.624 1407.6 551.312 1148.78 806.946C894.423 1058.17 910.808 1202.71 664.225 1341.32C413.421 1482.3 118.415 1276.12 -80.5999 1472.68C-214.133 1604.57 -172.783 1774.67 -105.358 1910.48" stroke="#091D3C" stroke-miterlimit="10"/>
<path d="M1521.2 151.356C1455.61 159.404 1350.02 141.268 1298.6 182.013C1072.69 361.04 1401.38 535.894 1146.19 787.939C888.97 1041.99 918.506 1208.56 669.073 1354.37C413.298 1503.88 110.084 1283.8 -93.7109 1485.08C-222.791 1612.58 -176.9 1763.1 -112.602 1894.62" stroke="#091E3F" stroke-miterlimit="10"/>
<path d="M1523.55 158.108C1460.39 165.461 1358.89 147.86 1309.17 186.52C1090.46 356.495 1395.15 520.503 1143.6 768.939C883.497 1025.82 926.218 1214.44 673.905 1367.42C413.191 1525.5 101.73 1291.46 -106.844 1497.47C-231.477 1620.56 -181.05 1751.52 -119.874 1878.76" stroke="#091F41" stroke-miterlimit="10"/>
<path d="M1525.92 164.85C1465.18 171.496 1367.78 154.461 1319.75 191.012C1108.25 351.941 1388.93 505.097 1141.02 749.944C878.052 1009.68 933.994 1220.35 678.765 1380.49C413.135 1547.15 93.3997 1299.16 -119.944 1509.88C-240.122 1628.58 -185.148 1739.98 -127.1 1862.92" stroke="#0A2144" stroke-miterlimit="10"/>
<path d="M1528.27 171.604C1469.95 177.554 1376.65 161.074 1330.33 195.516C1126.01 347.391 1382.72 489.696 1138.44 730.954C872.605 993.518 941.781 1226.27 683.618 1393.56C413.105 1568.84 85.0743 1306.86 -133.049 1522.3C-248.78 1636.6 -189.27 1728.44 -134.332 1847.09" stroke="#0A2247" stroke-miterlimit="10"/>
<path d="M1530.62 178.34C1474.73 183.582 1385.52 167.669 1340.89 199.989C1143.73 342.84 1376.48 474.27 1135.86 711.933C867.141 977.333 949.597 1232.18 688.466 1406.59C413.102 1590.51 76.7424 1314.52 -146.161 1534.69C-257.438 1644.6 -193.387 1716.86 -141.57 1831.22" stroke="#0B2349" stroke-miterlimit="10"/>
<path d="M1532.99 185.086C1479.52 189.633 1394.39 174.261 1351.47 204.485C1161.46 338.305 1370.27 458.868 1133.28 692.922C861.7 961.152 957.432 1238.11 693.315 1419.65C413.133 1612.24 68.4015 1322.21 -159.277 1547.08C-266.108 1652.59 -197.509 1705.28 -148.831 1815.36" stroke="#0B254C" stroke-miterlimit="10"/>
<path d="M1535.34 191.836C1484.29 195.675 1403.25 180.875 1362.04 208.99C1179.14 333.804 1364.05 443.469 1130.68 673.94C856.223 945.005 965.27 1244.07 698.149 1432.73C413.178 1633.98 60.0564 1329.91 -172.402 1559.51C-274.778 1660.63 -201.644 1693.76 -156.083 1799.53" stroke="#0B264F" stroke-miterlimit="10"/>
<path d="M1537.69 198.575C1489.07 201.719 1412.1 187.466 1372.61 213.478C1196.81 329.285 1357.82 428.059 1128.1 654.934C850.78 928.843 973.16 1250.02 702.994 1445.77C413.246 1655.72 51.7219 1337.58 -185.516 1571.9C-283.446 1668.61 -205.764 1682.19 -163.324 1783.67" stroke="#0C2752" stroke-miterlimit="10"/>
<path d="M1540.06 205.321C1493.85 207.757 1420.95 194.069 1383.19 217.974C1214.44 324.795 1351.61 412.65 1125.53 635.937C845.333 912.68 981.063 1255.97 707.858 1458.83C413.369 1677.49 43.3965 1345.28 -198.611 1584.31C-292.075 1676.63 -209.864 1670.63 -170.556 1767.84" stroke="#0C2854" stroke-miterlimit="10"/>
<path d="M1542.41 212.071C1498.63 213.812 1429.79 200.677 1393.76 222.474C1232.04 320.308 1345.38 397.252 1122.95 616.943C839.887 896.517 988.993 1261.95 712.714 1471.89C413.501 1699.27 35.0726 1352.97 -211.721 1596.71C-300.738 1684.63 -213.984 1659.08 -177.8 1751.98" stroke="#0D2A57" stroke-miterlimit="10"/>
<path d="M1544.76 218.809C1503.41 219.836 1438.62 207.278 1404.32 226.968C1249.57 315.844 1339.14 381.847 1120.34 597.936C834.399 880.345 996.901 1267.91 717.537 1484.95C413.624 1721.05 26.7165 1360.65 -224.857 1609.11C-309.42 1692.64 -218.126 1647.52 -185.063 1736.13" stroke="#0D2B5A" stroke-miterlimit="10"/>
<path d="M1547.12 225.553C1508.2 225.885 1447.45 213.872 1414.9 231.462C1267.06 311.377 1332.94 366.436 1117.78 578.936C828.973 864.188 1004.87 1273.88 722.394 1498.01C413.799 1742.86 18.3832 1368.35 -237.959 1621.53C-318.075 1700.65 -222.234 1635.96 -192.292 1720.29" stroke="#0D2C5C" stroke-miterlimit="10"/>
<path d="M1549.47 232.304C1512.97 231.929 1456.24 220.472 1425.47 235.963C1284.49 306.926 1326.71 351.039 1115.19 559.943C823.511 848.031 1012.84 1279.86 727.244 1511.08C413.985 1764.68 10.0543 1376.04 -251.068 1633.95C-326.73 1708.68 -226.359 1624.42 -199.538 1704.47" stroke="#0E2E5F" stroke-miterlimit="10"/>
<path d="M1551.83 239.055C1517.75 237.972 1465.04 227.059 1436.05 240.463C1301.83 302.496 1320.5 335.635 1112.61 540.956C818.06 831.874 1020.81 1285.86 732.087 1524.14C414.188 1786.51 1.71813 1383.73 -264.191 1646.34C-335.406 1716.67 -230.481 1612.86 -206.795 1688.6" stroke="#0E2F62" stroke-miterlimit="10"/>
<path d="M1554.19 245.788C1522.53 244.009 1473.8 233.627 1446.63 244.946C1319.08 298.03 1314.28 320.219 1110.04 521.945C812.608 815.699 1028.82 1291.82 736.946 1537.19C414.418 1808.32 -6.61266 1391.41 -277.29 1658.74C-344.052 1724.68 -234.586 1601.29 -214.021 1672.75" stroke="#0F3065" stroke-miterlimit="10"/>
<path d="M1556.54 252.54C1527.3 250.053 1482.56 240.2 1457.19 249.453C1336.19 293.57 1308.04 304.828 1107.44 502.946C807.146 799.529 1036.82 1297.81 741.786 1550.25C414.646 1830.15 -14.9527 1399.1 -290.41 1671.15C-352.724 1732.69 -238.723 1589.74 -221.268 1656.9" stroke="#0F3267" stroke-miterlimit="10"/>
<path d="M1558.9 259.288C1532.08 256.106 1491.26 246.749 1467.76 253.951C1353.15 289.074 1301.83 289.422 1104.87 483.95C801.699 783.382 1044.86 1303.8 746.643 1563.31C414.909 1851.99 -23.2742 1406.79 -303.511 1683.57C-361.372 1740.71 -242.83 1578.18 -228.507 1641.07" stroke="#0F336A" stroke-miterlimit="10"/>
<path d="M1561.26 266.022C1536.86 262.132 1499.94 253.245 1478.34 258.434C1369.94 284.474 1295.61 274.007 1102.28 464.946C796.247 767.208 1052.88 1309.77 751.492 1576.37C415.182 1873.83 -31.6152 1414.47 -316.628 1695.96C-370.03 1748.7 -246.945 1566.62 -235.757 1625.2" stroke="#10346D" stroke-miterlimit="10"/>
<path d="M1563.61 272.773C1541.64 268.188 1508.57 259.705 1488.91 262.922C1386.47 279.729 1289.39 258.59 1099.7 445.94C790.785 751.038 1060.94 1315.75 756.331 1589.43C415.462 1895.69 -39.9554 1422.16 -329.748 1708.37C-378.696 1756.72 -251.082 1555.07 -243.004 1609.36" stroke="#10356F" stroke-miterlimit="10"/>
<path d="M1565.97 279.524C1546.42 274.232 1517.15 266.095 1499.47 267.429C1402.77 274.749 1283.16 243.199 1097.11 426.953C785.332 734.881 1068.99 1321.75 761.172 1602.49C415.744 1917.54 -48.2937 1429.85 -342.866 1720.78C-387.367 1764.72 -255.206 1543.51 -250.249 1593.52" stroke="#103772" stroke-miterlimit="10"/>
<path d="M1568.33 286.258C1551.21 280.27 1525.69 272.359 1510.05 271.913C1418.81 269.288 1276.94 227.784 1094.53 407.93C779.882 718.707 1077.06 1327.7 766.027 1615.52C416.065 1939.39 -56.6287 1437.52 -355.97 1733.16C-396.017 1772.72 -259.309 1531.94 -257.49 1577.66" stroke="#113875" stroke-miterlimit="10"/>
<path d="M1570.68 293.008C1555.98 286.312 1534.18 278.513 1520.63 276.413C1434.67 263.131 1270.72 212.379 1091.94 388.942C774.426 702.548 1085.13 1333.69 770.872 1628.59C416.379 1961.25 -64.9633 1445.22 -369.091 1745.57C-404.691 1780.73 -263.446 1520.39 -264.745 1561.8" stroke="#113978" stroke-miterlimit="10"/>
<path d="M1573.03 299.758C1560.76 292.367 1542.7 284.492 1531.2 280.912C1450.64 255.85 1264.5 196.98 1089.37 369.948C768.97 686.39 1093.23 1339.67 775.728 1641.66C416.722 1983.12 -73.2863 1452.91 -382.194 1757.99C-413.34 1788.75 -267.555 1508.83 -271.975 1545.97" stroke="#123B7A" stroke-miterlimit="10"/>
<path d="M1575.38 306.496C1565.52 298.397 1551.31 290.31 1541.76 285.406C1467.31 247.141 1258.26 181.57 1086.77 350.948C763.508 670.22 1101.31 1345.65 780.566 1654.72C417.054 2004.99 -81.6277 1460.6 -395.305 1770.39C-422.003 1796.75 -271.682 1497.28 -279.212 1530.12" stroke="#123C7D" stroke-miterlimit="10"/>
<path d="M1577.75 313.24C1570.32 304.446 1560.17 296.09 1552.34 289.9C1485.72 237.228 1252.05 166.165 1084.19 331.954C758.052 654.062 1109.82 1352.12 785.411 1667.79C417.873 2027.42 -89.9681 1468.28 -408.414 1782.79C-430.659 1804.76 -275.79 1485.72 -286.459 1514.28" stroke="#123D80" stroke-miterlimit="10"/>
<path d="M1580.1 319.992C1575.09 310.49 1569.32 302.004 1562.92 294.401C1506.45 227.432 1245.83 150.768 1081.61 312.949C752.609 637.9 1117.52 1357.61 790.256 1680.83C417.778 2048.74 -98.3068 1475.97 -421.532 1795.2C-439.33 1812.77 -279.915 1474.17 -293.704 1498.44" stroke="#133F83" stroke-miterlimit="10"/>
</g>
</g>
<defs>
<clipPath id="clip0_1096_3927">
<rect width="1445" height="2039" fill="white" transform="translate(-5)"/>
</clipPath>
</defs>
</svg>
